<svg width="494" height="83" viewBox="0 0 494 83" fill="none" xmlns="http://www.w3.org/2000/svg">
<path d="M0.461869 82H-1.53813V84H0.461869V82ZM0.461869 18.1V16.1H-1.53813V18.1H0.461869ZM15.1319 18.1H17.1319V16.1H15.1319V18.1ZM15.1319 42.85H13.1319V44.85H15.1319V42.85ZM20.1719 42.85V44.85H21.1963L21.7949 44.0186L20.1719 42.85ZM37.9919 18.1V16.1H36.9674L36.3688 16.9314L37.9919 18.1ZM54.3719 18.1L55.9792 19.2902L58.3416 16.1H54.3719V18.1ZM31.5119 48.97L29.9046 47.7798L29.0164 48.9792L29.9134 50.1721L31.5119 48.97ZM56.3519 82V84H60.3584L57.9503 80.7979L56.3519 82ZM38.4419 82L36.8244 83.1763L37.4234 84H38.4419V82ZM19.7219 56.26L21.3393 55.0837L20.7403 54.26H19.7219V56.26ZM15.1319 56.26V54.26H13.1319V56.26H15.1319ZM15.1319 82V84H17.1319V82H15.1319ZM2.46187 82V18.1H-1.53813V82H2.46187ZM0.461869 20.1H15.1319V16.1H0.461869V20.1ZM13.1319 18.1V42.85H17.1319V18.1H13.1319ZM15.1319 44.85H20.1719V40.85H15.1319V44.85ZM21.7949 44.0186L39.6149 19.2686L36.3688 16.9314L18.5488 41.6814L21.7949 44.0186ZM37.9919 20.1H54.3719V16.1H37.9919V20.1ZM52.7646 16.9098L29.9046 47.7798L33.1191 50.1602L55.9792 19.2902L52.7646 16.9098ZM29.9134 50.1721L54.7534 83.2021L57.9503 80.7979L33.1103 47.7679L29.9134 50.1721ZM56.3519 80H38.4419V84H56.3519V80ZM40.0593 80.8237L21.3393 55.0837L18.1044 57.4363L36.8244 83.1763L40.0593 80.8237ZM19.7219 54.26H15.1319V58.26H19.7219V54.26ZM13.1319 56.26V82H17.1319V56.26H13.1319ZM15.1319 80H0.461869V84H15.1319V80ZM82.4512 79.84L81.5793 81.64L81.5961 81.6481L81.613 81.6559L82.4512 79.84ZM72.4612 72.46L70.9774 73.8011L70.9839 73.8083L70.9904 73.8154L72.4612 72.46ZM65.9812 62.02L64.1144 62.738L64.1182 62.7477L65.9812 62.02ZM66.0712 37.9L64.2242 37.1328L64.2212 37.14L64.2182 37.1472L66.0712 37.9ZM72.7312 27.55L71.2748 26.1793L71.2739 26.1802L72.7312 27.55ZM82.9012 20.35L82.0863 18.5235L82.9012 20.35ZM108.551 20.53L107.679 22.33L107.696 22.3381L107.713 22.3459L108.551 20.53ZM118.541 27.91L117.043 29.2351L117.05 29.2431L117.057 29.2511L118.541 27.91ZM125.021 38.44L123.154 39.158L123.158 39.1677L125.021 38.44ZM124.841 62.38L122.994 61.6128L122.991 61.62L122.988 61.6272L124.841 62.38ZM118.181 72.73L116.725 71.3593L116.724 71.3602L118.181 72.73ZM108.101 79.93L108.927 81.7517L108.939 81.7459L108.101 79.93ZM80.6512 59.5L78.8129 60.2878L78.8158 60.2947L78.8188 60.3016L80.6512 59.5ZM86.3212 66.61L87.5089 65.0009L86.3212 66.61ZM104.771 66.52L103.559 64.9291L103.55 64.9362L103.541 64.9434L104.771 66.52ZM110.351 59.23L108.507 58.4555L108.503 58.4649L108.499 58.4742L110.351 59.23ZM110.261 40.69L108.423 41.4778L108.433 41.5007L108.443 41.5233L110.261 40.69ZM104.591 33.58L103.41 35.1941L103.419 35.2008L103.429 35.2075L104.591 33.58ZM86.1412 33.76L87.3474 35.3553L87.3532 35.3509L86.1412 33.76ZM80.5612 40.96L78.7229 40.1722L78.716 40.1881L78.7095 40.2042L80.5612 40.96ZM95.4112 80.54C90.9303 80.54 86.9004 79.6907 83.2893 78.0241L81.613 81.6559C85.8019 83.5893 90.412 84.54 95.4112 84.54V80.54ZM83.323 78.04C79.7029 76.2865 76.5776 73.9755 73.9319 71.1046L70.9904 73.8154C73.9848 77.0645 77.5194 79.6735 81.5793 81.64L83.323 78.04ZM73.9449 71.1189C71.2841 68.175 69.2541 64.902 67.8441 61.2923L64.1182 62.7477C65.7082 66.818 67.9982 70.505 70.9774 73.8011L73.9449 71.1189ZM67.8479 61.302C66.4351 57.629 65.7312 53.8522 65.7312 49.96H61.7312C61.7312 54.3478 62.5272 58.611 64.1145 62.738L67.8479 61.302ZM65.7312 49.96C65.7312 46.0145 66.4625 42.2504 67.9241 38.6528L64.2182 37.1472C62.5598 41.2296 61.7312 45.5055 61.7312 49.96H65.7312ZM67.9182 38.6672C69.4481 34.9841 71.5379 31.7396 74.1884 28.9198L71.2739 26.1802C68.2845 29.3604 65.9343 33.0159 64.2242 37.1328L67.9182 38.6672ZM74.1876 28.9207C76.883 26.0568 80.0539 23.8103 83.716 22.1765L82.0863 18.5235C77.9484 20.3697 74.3393 22.9232 71.2748 26.1793L74.1876 28.9207ZM83.716 22.1765C87.3392 20.56 91.3187 19.74 95.6812 19.74V15.74C90.8036 15.74 86.2631 16.66 82.0863 18.5235L83.716 22.1765ZM95.6812 19.74C100.153 19.74 104.14 20.6156 107.679 22.33L109.423 18.73C105.282 16.7244 100.689 15.74 95.6812 15.74V19.74ZM107.713 22.3459C111.369 24.0335 114.473 26.3292 117.043 29.2351L120.039 26.5849C117.09 23.2508 113.533 20.6265 109.389 18.7141L107.713 22.3459ZM117.057 29.2511C119.714 32.1899 121.743 35.489 123.154 39.158L126.888 37.722C125.299 33.591 123.009 29.8701 120.025 26.5689L117.057 29.2511ZM123.158 39.1677C124.57 42.7818 125.271 46.4654 125.271 50.23H129.271C129.271 45.9546 128.472 41.7782 126.884 37.7123L123.158 39.1677ZM125.271 50.23C125.271 54.1652 124.514 57.9546 122.994 61.6128L126.688 63.1472C128.409 59.0054 129.271 54.6948 129.271 50.23H125.271ZM122.988 61.6272C121.522 65.2353 119.438 68.4765 116.725 71.3593L119.638 74.1007C122.684 70.8635 125.04 67.2047 126.694 63.1328L122.988 61.6272ZM116.724 71.3602C114.087 74.1651 110.94 76.4169 107.263 78.1141L108.939 81.7459C113.062 79.8431 116.635 77.2949 119.638 74.0998L116.724 71.3602ZM107.276 78.1083C103.719 79.7199 99.774 80.54 95.4112 80.54V84.54C100.288 84.54 104.803 83.6201 108.927 81.7517L107.276 78.1083ZM76.7612 50.14C76.7612 53.7021 77.4428 57.0909 78.8129 60.2878L82.4895 58.7122C81.3396 56.0291 80.7612 53.1779 80.7612 50.14H76.7612ZM78.8188 60.3016C80.2187 63.5014 82.3305 66.1503 85.1335 68.2191L87.5089 65.0009C85.2718 63.3497 83.6036 61.2586 82.4835 58.6984L78.8188 60.3016ZM85.1335 68.2191C88.0473 70.3698 91.5401 71.4 95.5012 71.4V67.4C92.2622 67.4 89.6351 66.5702 87.5089 65.0009L85.1335 68.2191ZM95.5012 71.4C99.5784 71.4 103.126 70.341 106.002 68.0966L103.541 64.9434C101.496 66.539 98.864 67.4 95.5012 67.4V71.4ZM105.983 68.1109C108.788 65.974 110.868 63.2554 112.203 59.9858L108.499 58.4742C107.434 61.0846 105.794 63.226 103.559 64.9291L105.983 68.1109ZM112.195 60.0045C113.556 56.7651 114.241 53.4122 114.241 49.96H110.241C110.241 52.8678 109.667 55.6949 108.507 58.4555L112.195 60.0045ZM114.241 49.96C114.241 46.3847 113.524 43.0091 112.079 39.8567L108.443 41.5233C109.638 44.1309 110.241 46.9353 110.241 49.96H114.241ZM112.099 39.9022C110.7 36.6373 108.582 33.9725 105.754 31.9525L103.429 35.2075C105.641 36.7875 107.302 38.8627 108.423 41.4778L112.099 39.9022ZM105.772 31.9659C102.911 29.8721 99.4466 28.88 95.5012 28.88V32.88C98.7557 32.88 101.352 33.6879 103.41 35.1941L105.772 31.9659ZM95.5012 28.88C91.4224 28.88 87.8555 29.9395 84.9291 32.1691L87.3532 35.3509C89.4668 33.7405 92.1399 32.88 95.5012 32.88V28.88ZM84.9349 32.1647C82.1871 34.2423 80.1145 36.925 78.7229 40.1722L82.3995 41.7478C83.5278 39.115 85.1752 36.9977 87.3474 35.3553L84.9349 32.1647ZM78.7095 40.2042C77.4114 43.3845 76.7612 46.7012 76.7612 50.14H80.7612C80.7612 47.2188 81.3109 44.4155 82.4129 41.7158L78.7095 40.2042ZM167.39 82H165.39V84H167.39V82ZM167.39 76.24H169.39V74.3344L167.487 74.2423L167.39 76.24ZM156.77 73.9L155.982 75.7383L155.996 75.7443L156.01 75.75L156.77 73.9ZM147.77 68.05L146.407 69.5132L147.77 68.05ZM141.56 59.32L139.734 60.1353L141.56 59.32ZM141.65 36.55L143.464 37.3922L143.47 37.38L141.65 36.55ZM147.95 27.82L149.295 29.2999L149.297 29.2984L147.95 27.82ZM156.95 22.15L157.693 24.007L157.701 24.0035L157.71 24L156.95 22.15ZM167.39 19.81L167.49 21.8075L169.39 21.7125V19.81H167.39ZM167.39 14.77V12.77H165.39V14.77H167.39ZM181.34 14.77H183.34V12.77H181.34V14.77ZM181.34 19.81H179.34V21.7125L181.24 21.8075L181.34 19.81ZM191.78 22.15L191.02 24L191.034 24.0059L191.049 24.0115L191.78 22.15ZM200.78 27.82L199.417 29.2832L199.426 29.2916L199.435 29.2999L200.78 27.82ZM207.08 36.55L205.26 37.38L207.08 36.55ZM207.08 59.32L205.266 58.4778L205.26 58.4912L205.254 58.5047L207.08 59.32ZM200.87 68.05L199.507 66.5868L200.87 68.05ZM191.87 73.9L192.63 75.75L192.644 75.7443L192.658 75.7383L191.87 73.9ZM181.34 76.24L181.242 74.2424L179.34 74.3359V76.24H181.34ZM181.34 82V84H183.34V82H181.34ZM167.75 64.45L167.546 66.4396L169.75 66.6656V64.45H167.75ZM167.75 31.6H169.75V29.3954L167.556 29.6095L167.75 31.6ZM160.91 33.94L161.974 35.6333L160.91 33.94ZM155.87 39.52L154.099 38.5903L154.095 38.5988L154.09 38.6074L155.87 39.52ZM161.09 62.2L160.004 63.8791L160.032 63.8976L160.061 63.915L161.09 62.2ZM180.98 64.45H178.98V66.66L181.179 66.4401L180.98 64.45ZM187.64 62.2L188.691 63.9016L188.698 63.8975L188.704 63.8933L187.64 62.2ZM192.68 56.71L190.928 55.7462L190.923 55.754L190.919 55.7618L192.68 56.71ZM192.77 39.52L190.999 40.4497L191.004 40.459L191.009 40.4682L192.77 39.52ZM187.73 33.94L186.644 35.6191L186.655 35.6263L186.666 35.6333L187.73 33.94ZM180.98 31.6L181.174 29.6095L178.98 29.3954V31.6H180.98ZM169.39 82V76.24H165.39V82H169.39ZM167.487 74.2423C163.989 74.0731 160.674 73.3411 157.53 72.05L156.01 75.75C159.587 77.2189 163.351 78.0469 167.293 78.2377L167.487 74.2423ZM157.558 72.0617C154.407 70.7114 151.602 68.8874 149.134 66.5868L146.407 69.5132C149.218 72.1326 152.413 74.2086 155.982 75.7383L157.558 72.0617ZM149.134 66.5868C146.694 64.3132 144.779 61.6248 143.386 58.5047L139.734 60.1353C141.341 63.7352 143.567 66.8668 146.407 69.5132L149.134 66.5868ZM143.386 58.5047C142.014 55.4316 141.31 51.9643 141.31 48.07H137.31C137.31 52.4557 138.106 56.4884 139.734 60.1353L143.386 58.5047ZM141.31 48.07C141.31 43.9929 142.045 40.448 143.464 37.3922L139.836 35.7078C138.135 39.372 137.31 43.5071 137.31 48.07H141.31ZM143.47 37.38C144.923 34.1931 146.867 31.5079 149.295 29.2999L146.605 26.3401C143.754 28.9321 141.497 32.0669 139.83 35.72L143.47 37.38ZM149.297 29.2984C151.825 26.9952 154.621 25.2355 157.693 24.007L156.207 20.293C152.679 21.7045 149.475 23.7248 146.603 26.3416L149.297 29.2984ZM157.71 24C160.862 22.7056 164.118 21.9761 167.49 21.8075L167.29 17.8125C163.462 18.0039 159.759 18.8344 156.19 20.3L157.71 24ZM169.39 19.81V14.77H165.39V19.81H169.39ZM167.39 16.77H181.34V12.77H167.39V16.77ZM179.34 14.77V19.81H183.34V14.77H179.34ZM181.24 21.8075C184.612 21.9761 187.869 22.7056 191.02 24L192.54 20.3C188.972 18.8344 185.268 18.0039 181.44 17.8125L181.24 21.8075ZM191.049 24.0115C194.175 25.2397 196.961 26.9946 199.417 29.2832L202.144 26.3568C199.32 23.7254 196.105 21.7003 192.511 20.2885L191.049 24.0115ZM199.435 29.2999C201.864 31.5079 203.807 34.1931 205.26 37.38L208.9 35.72C207.233 32.0669 204.977 28.9321 202.125 26.3401L199.435 29.2999ZM205.26 37.38C206.687 40.5068 207.42 44.0582 207.42 48.07H211.42C211.42 43.5618 210.593 39.4332 208.9 35.72L205.26 37.38ZM207.42 48.07C207.42 51.9535 206.69 55.4112 205.266 58.4778L208.894 60.1622C210.59 56.5088 211.42 52.4665 211.42 48.07H207.42ZM205.254 58.5047C203.861 61.6248 201.947 64.3132 199.507 66.5868L202.234 69.5132C205.074 66.8668 207.299 63.7352 208.906 60.1353L205.254 58.5047ZM199.507 66.5868C197.038 68.8874 194.233 70.7114 191.082 72.0617L192.658 75.7383C196.227 74.2086 199.422 72.1326 202.234 69.5132L199.507 66.5868ZM191.11 72.05C187.963 73.3427 184.677 74.0735 181.242 74.2424L181.438 78.2376C185.324 78.0465 189.057 77.2173 192.63 75.75L191.11 72.05ZM179.34 76.24V82H183.34V76.24H179.34ZM181.34 80H167.39V84H181.34V80ZM169.75 64.45V31.6H165.75V64.45H169.75ZM167.556 29.6095C164.786 29.8797 162.208 30.762 159.846 32.2467L161.974 35.6333C163.812 34.478 165.795 33.8003 167.944 33.5905L167.556 29.6095ZM159.846 32.2467C157.42 33.7717 155.508 35.9078 154.099 38.5903L157.641 40.4497C158.753 38.3322 160.2 36.7483 161.974 35.6333L159.846 32.2467ZM154.09 38.6074C152.711 41.2972 152.07 44.4783 152.07 48.07H156.07C156.07 44.9417 156.629 42.4228 157.65 40.4326L154.09 38.6074ZM152.07 48.07C152.07 51.7422 152.779 54.9816 154.308 57.6926L157.792 55.7274C156.681 53.7584 156.07 51.2378 156.07 48.07H152.07ZM154.308 57.6926C155.77 60.2841 157.664 62.3654 160.004 63.8791L162.177 60.5209C160.436 59.3946 158.97 57.8159 157.792 55.7274L154.308 57.6926ZM160.061 63.915C162.402 65.3195 164.902 66.1684 167.546 66.4396L167.954 62.4604C165.918 62.2516 163.978 61.6005 162.119 60.485L160.061 63.915ZM181.179 66.4401C183.879 66.17 186.391 65.3222 188.691 63.9016L186.589 60.4984C184.809 61.5978 182.881 62.25 180.781 62.4599L181.179 66.4401ZM188.704 63.8933C191.118 62.3762 193.029 60.2801 194.441 57.6582L190.919 55.7618C189.811 57.8199 188.362 59.3838 186.576 60.5067L188.704 63.8933ZM194.432 57.6738C195.948 54.9187 196.66 51.6914 196.66 48.07H192.66C192.66 51.1686 192.052 53.7013 190.928 55.7462L194.432 57.6738ZM196.66 48.07C196.66 44.4646 195.984 41.2703 194.531 38.5718L191.009 40.4682C192.076 42.4497 192.66 44.9554 192.66 48.07H196.66ZM194.541 38.5903C193.133 35.9078 191.22 33.7717 188.794 32.2467L186.666 35.6333C188.44 36.7483 189.888 38.3322 190.999 40.4497L194.541 38.5903ZM188.817 32.2609C186.504 30.7642 183.947 29.8799 181.174 29.6095L180.786 33.5905C182.934 33.8001 184.877 34.4758 186.644 35.6191L188.817 32.2609ZM178.98 31.6V64.45H182.98V31.6H178.98ZM270.081 69.04H272.081V67.04H270.081V69.04ZM270.081 82V84H272.081V82H270.081ZM225.171 82H223.171V84H225.171V82ZM225.171 18.1V16.1H223.171V18.1H225.171ZM269.271 18.1H271.271V16.1H269.271V18.1ZM269.271 31.06V33.06H271.271V31.06H269.271ZM239.931 31.06V29.06H237.931V31.06H239.931ZM239.931 43.48H237.931V45.48H239.931V43.48ZM265.131 43.48H267.131V41.48H265.131V43.48ZM265.131 55.45V57.45H267.131V55.45H265.131ZM239.931 55.45V53.45H237.931V55.45H239.931ZM239.931 69.04H237.931V71.04H239.931V69.04ZM268.081 69.04V82H272.081V69.04H268.081ZM270.081 80H225.171V84H270.081V80ZM227.171 82V18.1H223.171V82H227.171ZM225.171 20.1H269.271V16.1H225.171V20.1ZM267.271 18.1V31.06H271.271V18.1H267.271ZM269.271 29.06H239.931V33.06H269.271V29.06ZM237.931 31.06V43.48H241.931V31.06H237.931ZM239.931 45.48H265.131V41.48H239.931V45.48ZM263.131 43.48V55.45H267.131V43.48H263.131ZM265.131 53.45H239.931V57.45H265.131V53.45ZM237.931 55.45V69.04H241.931V55.45H237.931ZM239.931 71.04H270.081V67.04H239.931V71.04ZM286.608 82H284.608V84H286.608V82ZM286.608 18.1V16.1H284.608V18.1H286.608ZM301.368 18.1H303.368V16.1H301.368V18.1ZM301.368 61.03H299.368V67.8517L303.051 62.1099L301.368 61.03ZM328.908 18.1V16.1H327.815L327.224 17.0201L328.908 18.1ZM342.678 18.1H344.678V16.1H342.678V18.1ZM342.678 82V84H344.678V82H342.678ZM327.918 82H325.918V84H327.918V82ZM327.918 39.34H329.918V32.4789L326.231 38.2653L327.918 39.34ZM300.738 82V84H301.835L302.424 83.0747L300.738 82ZM305.238 12.88L304.392 14.6924L304.409 14.7001L304.425 14.7076L305.238 12.88ZM298.938 7.83999L297.295 8.98079L297.303 8.99168L297.31 9.00247L298.938 7.83999ZM296.688 0.549997V-1.45H294.688V0.549997H296.688ZM306.498 0.549997H308.498V-1.45H306.498V0.549997ZM308.478 5.41L307.032 6.79244L307.048 6.8085L307.064 6.82421L308.478 5.41ZM320.808 5.5L319.456 4.02569L319.441 4.04004L319.425 4.05471L320.808 5.5ZM322.968 0.549997V-1.45H320.968V0.549997H322.968ZM332.778 0.549997H334.778V-1.45H332.778V0.549997ZM330.528 7.83999L332.155 9.00247L332.163 8.99168L332.17 8.98079L330.528 7.83999ZM324.138 12.88L324.95 14.7076L324.959 14.7035L324.968 14.6994L324.138 12.88ZM288.608 82V18.1H284.608V82H288.608ZM286.608 20.1H301.368V16.1H286.608V20.1ZM299.368 18.1V61.03H303.368V18.1H299.368ZM303.051 62.1099L330.591 19.1799L327.224 17.0201L299.684 59.9501L303.051 62.1099ZM328.908 20.1H342.678V16.1H328.908V20.1ZM340.678 18.1V82H344.678V18.1H340.678ZM342.678 80H327.918V84H342.678V80ZM329.918 82V39.34H325.918V82H329.918ZM326.231 38.2653L299.051 80.9253L302.424 83.0747L329.604 40.4147L326.231 38.2653ZM300.738 80H286.608V84H300.738V80ZM314.688 12.68C311.308 12.68 308.445 12.1167 306.05 11.0524L304.425 14.7076C307.431 16.0433 310.868 16.68 314.688 16.68V12.68ZM306.083 11.0676C303.647 9.93056 301.836 8.45642 300.565 6.67752L297.31 9.00247C299.04 11.4236 301.429 13.3094 304.392 14.6924L306.083 11.0676ZM300.58 6.6992C299.32 4.88357 298.688 2.85382 298.688 0.549997H294.688C294.688 3.64618 295.556 6.47643 297.295 8.98079L300.58 6.6992ZM296.688 2.55H306.498V-1.45H296.688V2.55ZM304.498 0.549997C304.498 2.94014 305.367 5.05129 307.032 6.79244L309.923 4.02755C308.948 3.0087 308.498 1.87986 308.498 0.549997H304.498ZM307.064 6.82421C308.958 8.71876 311.664 9.47999 314.778 9.47999V5.47999C312.251 5.47999 310.757 4.86123 309.892 3.99578L307.064 6.82421ZM314.778 9.47999C317.733 9.47999 320.315 8.73872 322.19 6.94528L319.425 4.05471C318.54 4.90127 317.102 5.47999 314.778 5.47999V9.47999ZM322.159 6.97431C324.019 5.26966 324.968 3.08193 324.968 0.549997H320.968C320.968 1.97806 320.477 3.09033 319.456 4.02569L322.159 6.97431ZM322.968 2.55H332.778V-1.45H322.968V2.55ZM330.778 0.549997C330.778 2.85382 330.146 4.88356 328.885 6.6992L332.17 8.98079C333.91 6.47643 334.778 3.64618 334.778 0.549997H330.778ZM328.9 6.67752C327.637 8.44607 325.805 9.92032 323.307 11.0606L324.968 14.6994C327.991 13.3197 330.418 11.4339 332.155 9.00247L328.9 6.67752ZM323.325 11.0524C320.931 12.1167 318.068 12.68 314.688 12.68V16.68C318.508 16.68 321.945 16.0433 324.95 14.7076L323.325 11.0524ZM417.52 18.1H419.52V16.1H417.52V18.1ZM417.52 82V84H419.52V82H417.52ZM402.76 82H400.76V84H402.76V82ZM402.76 55.81H404.76V53.81H402.76V55.81ZM377.29 55.81V53.81H375.29V55.81H377.29ZM377.29 82V84H379.29V82H377.29ZM362.53 82H360.53V84H362.53V82ZM362.53 18.1V16.1H360.53V18.1H362.53ZM377.29 18.1H379.29V16.1H377.29V18.1ZM377.29 42.85H375.29V44.85H377.29V42.85ZM402.76 42.85V44.85H404.76V42.85H402.76ZM402.76 18.1V16.1H400.76V18.1H402.76ZM415.52 18.1V82H419.52V18.1H415.52ZM417.52 80H402.76V84H417.52V80ZM404.76 82V55.81H400.76V82H404.76ZM402.76 53.81H377.29V57.81H402.76V53.81ZM375.29 55.81V82H379.29V55.81H375.29ZM377.29 80H362.53V84H377.29V80ZM364.53 82V18.1H360.53V82H364.53ZM362.53 20.1H377.29V16.1H362.53V20.1ZM375.29 18.1V42.85H379.29V18.1H375.29ZM377.29 44.85H402.76V40.85H377.29V44.85ZM404.76 42.85V18.1H400.76V42.85H404.76ZM402.76 20.1H417.52V16.1H402.76V20.1ZM437.326 82H435.326V84H437.326V82ZM437.326 18.1V16.1H435.326V18.1H437.326ZM452.086 18.1H454.086V16.1H452.086V18.1ZM452.086 61.03H450.086V67.8517L453.77 62.1099L452.086 61.03ZM479.626 18.1V16.1H478.533L477.943 17.0201L479.626 18.1ZM493.396 18.1H495.396V16.1H493.396V18.1ZM493.396 82V84H495.396V82H493.396ZM478.636 82H476.636V84H478.636V82ZM478.636 39.34H480.636V32.4789L476.949 38.2653L478.636 39.34ZM451.456 82V84H452.553L453.143 83.0747L451.456 82ZM439.326 82V18.1H435.326V82H439.326ZM437.326 20.1H452.086V16.1H437.326V20.1ZM450.086 18.1V61.03H454.086V18.1H450.086ZM453.77 62.1099L481.309 19.1799L477.943 17.0201L450.403 59.9501L453.77 62.1099ZM479.626 20.1H493.396V16.1H479.626V20.1ZM491.396 18.1V82H495.396V18.1H491.396ZM493.396 80H478.636V84H493.396V80ZM480.636 82V39.34H476.636V82H480.636ZM476.949 38.2653L449.769 80.9253L453.143 83.0747L480.323 40.4147L476.949 38.2653ZM451.456 80H437.326V84H451.456V80Z" fill="white"/>
</svg>
